HIERARCHY
ROOT root
{
	OFFSET 0.00 0.00 0.00
	CHANNELS 6 Xposition Yposition Zposition Zrotation Xrotation Yrotation
	JOINT lowerback
	{
		OFFSET 0 0 0
		CHANNELS 6 Xposition Yposition Zposition Zrotation Xrotation Yrotation
		JOINT upperback
		{
			OFFSET -0.214371 12.3768 -1.12219
			CHANNELS 6 Xposition Yposition Zposition Zrotation Xrotation Yrotation
			JOINT thorax
			{
				OFFSET -0.00137213 12.3873 0.296195
				CHANNELS 6 Xposition Yposition Zposition Zrotation Xrotation Yrotation
				JOINT lowerneck
				{
					OFFSET 0.0883157 12.5016 0.82912
					CHANNELS 6 Xposition Yposition Zposition Zrotation Xrotation Yrotation
					JOINT upperneck
					{
						OFFSET -1 10.1794 0.943522
						CHANNELS 6 Xposition Yposition Zposition Zrotation Xrotation Yrotation
						JOINT head
						{
							OFFSET 0.667525 10.2797 -1.57149
							CHANNELS 6 Xposition Yposition Zposition Zrotation Xrotation Yrotation
							End Site
							{
								OFFSET 0 0 0
							}
						}
					}
				}
				JOINT lclavicle
				{
					OFFSET 0.0883157 12.5016 0.82912
					CHANNELS 6 Xposition Yposition Zposition Zrotation Xrotation Yrotation
					JOINT lhumerus
					{
						OFFSET 20.61 4.45006 1.43784
						CHANNELS 6 Xposition Yposition Zposition Zrotation Xrotation Yrotation
						JOINT lradius
						{
							OFFSET 0 -30.3438 0
							CHANNELS 6 Xposition Yposition Zposition Zrotation Xrotation Yrotation
							JOINT lwrist
							{
								OFFSET 0 -18.964 0
								CHANNELS 6 Xposition Yposition Zposition Zrotation Xrotation Yrotation
								JOINT lhand
								{
									OFFSET 0 -9.48199 0
									CHANNELS 6 Xposition Yposition Zposition Zrotation Xrotation Yrotation
									JOINT lfingers
									{
										OFFSET 0 -3.17138 0
										CHANNELS 6 Xposition Yposition Zposition Zrotation Xrotation Yrotation
										End Site
										{
											OFFSET 0 -2.55685 0
										}
									}
								}
								JOINT lthumb
								{
									OFFSET 0 -9.48199 0
									CHANNELS 6 Xposition Yposition Zposition Zrotation Xrotation Yrotation
									End Site
									{
										OFFSET 0 -3.67114 0
									}
								}
							}
						}
					}
				}
				JOINT rclavicle
				{
					OFFSET 0.0883157 12.5016 0.82912
					CHANNELS 6 Xposition Yposition Zposition Zrotation Xrotation Yrotation
					JOINT rhumerus
					{
						OFFSET -20.61 4.45 1.44
						CHANNELS 6 Xposition Yposition Zposition Zrotation Xrotation Yrotation
						JOINT rradius
						{
							OFFSET 0 -29.5102 0
							CHANNELS 6 Xposition Yposition Zposition Zrotation Xrotation Yrotation
							JOINT rwrist
							{
								OFFSET 0 -19.2342 0
								CHANNELS 6 Xposition Yposition Zposition Zrotation Xrotation Yrotation
								JOINT rhand
								{
									OFFSET 0 -9.61712 0
									CHANNELS 6 Xposition Yposition Zposition Zrotation Xrotation Yrotation
									JOINT rfingers
									{
										OFFSET 0 -3.29215 0
										CHANNELS 6 Xposition Yposition Zposition Zrotation Xrotation Yrotation
										End Site
										{
											OFFSET 0 -2.557 0
										}
									}
								}
								JOINT rthumb
								{
									OFFSET 0 -9.61712 0
									CHANNELS 6 Xposition Yposition Zposition Zrotation Xrotation Yrotation
									End Site
									{
										OFFSET 0 -3.671 0
									}
								}
							}
						}
					}
				}
			}
		}
	}
	JOINT rfemur
	{
		OFFSET -8.46272 -9.62775 4.76248
		CHANNELS 6 Xposition Yposition Zposition Zrotation Xrotation Yrotation
		JOINT rtibia
		{
			OFFSET 1.00552e-005 -38.0331 0
			CHANNELS 6 Xposition Yposition Zposition Zrotation Xrotation Yrotation
			JOINT rfoot
			{
				OFFSET 1.14428e-005 -43.2815 0
				CHANNELS 6 Xposition Yposition Zposition Zrotation Xrotation Yrotation
				JOINT rtoes
				{
					OFFSET 0 -14.1868 -3.08763
					CHANNELS 6 Xposition Yposition Zposition Zrotation Xrotation Yrotation
					End Site
					{
						OFFSET 0 -7.27332 0
					}
				}
			}
		}
	}
	JOINT lfemur
	{
		OFFSET 9.10607 -9.62778 4.76249
		CHANNELS 6 Xposition Yposition Zposition Zrotation Xrotation Yrotation
		JOINT ltibia
		{
			OFFSET -1.01399e-005 -38.3535 0
			CHANNELS 6 Xposition Yposition Zposition Zrotation Xrotation Yrotation
			JOINT lfoot
			{
				OFFSET -1.12937e-005 -42.7176 0
				CHANNELS 6 Xposition Yposition Zposition Zrotation Xrotation Yrotation
				JOINT ltoes
				{
					OFFSET 0 -13.9965 -2.83857
					CHANNELS 6 Xposition Yposition Zposition Zrotation Xrotation Yrotation
					End Site
					{
						OFFSET 0 -7.16348 0
					}
				}
			}
		}
	}
}
MOTION
Frames: 5
Frame Time: 0.00833333
6.27663	96.6492	82.1008	-0.794257	0.787787	-1.27426	0 0 0 -1.65869	0.335471	0.206622	-0.214371 12.3768 -1.12219 -1.43543	10.9555	0.0209494	-0.00137213 12.3873 0.296195 -0.604309	11.5151	-0.269359	0.0883157 12.5016 0.82912 1.65088	-3.30478	2.3039	-1 10.1794 0.943522 -4.66621	23.6765	3.2235	0.667525 10.2797 -1.57149 -1.31919	7.91309	0.95218	0.0883157 12.5016 0.82912 -15	0	-0	20.61 4.45006 1.43784 15.4553	-19.7774	178.881	0 -30.3438 0 -0	21.5416	-0	0 -18.964 0 1.34184e-014	-2.87262e-015	-114.167	0 -9.48199 0 1.22245	4.37968	-2.58917e-014	0 -3.17138 0 -0	7.12502	-0	0 -9.48199 0 25	15	-1.36605e-015	0.0883157 12.5016 0.82912 15	0	-0	-20.61 4.45 1.44 -13.2527	-11.5574	175.677	0 -29.5102 0 -0	27.8844	-0	0 -19.2342 0 6.39313e-016	-2.92627e-015	114.648	0 -9.61712 0 1.22	4.38	-0	0 -3.29215 0 -0	7.12502	-0	0 -9.61712 0 25	15	-7.97034e-015	-8.46272 -9.62775 4.76248 4.11875	-31.8434	4.93227	1.00552e-005 -38.0331 0 -0	32.3199	-0	1.14428e-005 -43.2815 0 -30.0723	-74.2691	-31.0297	0 -14.1868 -3.08763 -0	-43.6696	-0	9.10607 -9.62778 4.76249 -4.14494	10.9607	5.58104	-1.01399e-005 -38.3535 0 -0	6.85913	-0	-1.12937e-005 -42.7176 0 39.6841	-71.555	41.1765	0 -13.9965 -2.83857 -0	-36.7176	-0
6.17731	96.5928	82.4915	-0.690205	0.864055	-1.00769	0 0 0 -1.68414	0.288327	0.165698	-0.214371 12.3768 -1.12219 -1.42389	10.9615	-0.0310056	-0.00137213 12.3873 0.296195 -0.587724	11.5509	-0.296664	0.0883157 12.5016 0.82912 1.62222	-3.3184	2.23815	-1 10.1794 0.943522 -4.51564	23.6956	3.1053	0.667525 10.2797 -1.57149 -1.28261	7.91505	0.907828	0.0883157 12.5016 0.82912 -15	0	-0	20.61 4.45006 1.43784 15.371	-19.5403	179.502	0 -30.3438 0 -0	20.92	-0	0 -18.964 0 1.33928e-014	-2.92905e-015	-114.673	0 -9.48199 0 1.22245	4.37968	-2.58917e-014	0 -3.17138 0 -0	7.12502	-0	0 -9.48199 0 25	15	-1.36605e-015	0.0883157 12.5016 0.82912 15	0	-0	-20.61 4.45 1.44 -13.2463	-11.4902	175.629	0 -29.5102 0 -0	27.8384	-0	0 -19.2342 0 6.40437e-016	-2.92871e-015	114.67	0 -9.61712 0 1.22	4.38	-0	0 -3.29215 0 -0	7.12502	-0	0 -9.61712 0 25	15	-7.97034e-015	-8.46272 -9.62775 4.76248 3.98195	-31.7796	5.0288	1.00552e-005 -38.0331 0 -0	32.2202	-0	1.14428e-005 -43.2815 0 -29.8281	-74.3186	-30.7748	0 -14.1868 -3.08763 -0	-43.6925	-0	9.10607 -9.62778 4.76249 -4.18882	11.3256	5.4644	-1.01399e-005 -38.3535 0 -0	6.51722	-0	-1.12937e-005 -42.7176 0 39.5063	-71.5566	40.9969	0 -13.9965 -2.83857 -0	-36.963	-0
6.07486	96.5307	82.8934	-0.587315	0.939821	-0.731553	0 0 0 -1.70067	0.241747	0.125635	-0.214371 12.3768 -1.12219 -1.41226	10.9624	-0.0820177	-0.00137213 12.3873 0.296195 -0.574791	11.5806	-0.322452	0.0883157 12.5016 0.82912 1.58945	-3.33075	2.16885	-1 10.1794 0.943522 -4.35907	23.7198	2.98123	0.667525 10.2797 -1.57149 -1.24425	7.91971	0.860769	0.0883157 12.5016 0.82912 -15	0	-0	20.61 4.45006 1.43784 15.2963	-19.2949	-179.838	0 -30.3438 0 -0	20.3173	-0	0 -18.964 0 1.33659e-014	-2.9869e-015	-115.194	0 -9.48199 0 1.22245	4.37968	-2.58917e-014	0 -3.17138 0 -0	7.12502	-0	0 -9.48199 0 25	15	-1.36605e-015	0.0883157 12.5016 0.82912 15	0	-0	-20.61 4.45 1.44 -13.2374	-11.4099	175.567	0 -29.5102 0 -0	27.7831	-0	0 -19.2342 0 6.41818e-016	-2.93172e-015	114.697	0 -9.61712 0 1.22	4.38	-0	0 -3.29215 0 -0	7.12502	-0	0 -9.61712 0 25	15	-7.97034e-015	-8.46272 -9.62775 4.76248 3.82816	-31.7051	5.05711	1.00552e-005 -38.0331 0 -0	32.1858	-0	1.14428e-005 -43.2815 0 -29.7371	-74.3371	-30.6798	0 -14.1868 -3.08763 -0	-43.6895	-0	9.10607 -9.62778 4.76249 -4.22726	11.6611	5.33681	-1.01399e-005 -38.3535 0 -0	6.23759	-0	-1.12937e-005 -42.7176 0 39.4249	-71.5584	40.9145	0 -13.9965 -2.83857 -0	-37.2304	-0
5.97066	96.4669	83.3053	-0.487404	1.01371	-0.451033	0 0 0 -1.70565	0.198386	0.0880659	-0.214371 12.3768 -1.12219 -1.39789	10.9588	-0.130226	-0.00137213 12.3873 0.296195 -0.566366	11.6031	-0.345644	0.0883157 12.5016 0.82912 1.55218	-3.34118	2.0963	-1 10.1794 0.943522 -4.19786	23.7481	2.85202	0.667525 10.2797 -1.57149 -1.20435	7.92536	0.811231	0.0883157 12.5016 0.82912 -15	0	-0	20.61 4.45006 1.43784 15.2306	-19.0423	-179.142	0 -30.3438 0 -0	19.737	-0	0 -18.964 0 1.33378e-014	-3.04595e-015	-115.728	0 -9.48199 0 1.22245	4.37968	-2.58917e-014	0 -3.17138 0 -0	7.12502	-0	0 -9.48199 0 25	15	-1.36605e-015	0.0883157 12.5016 0.82912 15	0	-0	-20.61 4.45 1.44 -13.227	-11.3197	175.49	0 -29.5102 0 -0	27.7148	-0	0 -19.2342 0 6.43508e-016	-2.93539e-015	114.73	0 -9.61712 0 1.22	4.38	-0	0 -3.29215 0 -0	7.12502	-0	0 -9.61712 0 25	15	-7.97034e-015	-8.46272 -9.62775 4.76248 3.66044	-31.6236	5.0153	1.00552e-005 -38.0331 0 -0	32.2175	-0	1.14428e-005 -43.2815 0 -29.7654	-74.3227	-30.7104	0 -14.1868 -3.08763 -0	-43.6634	-0	9.10607 -9.62778 4.76249 -4.26003	11.9644	5.20192	-1.01399e-005 -38.3535 0 -0	6.02662	-0	-1.12937e-005 -42.7176 0 39.4475	-71.5581	40.9373	0 -13.9965 -2.83857 -0	-37.5236	-0
5.86646	96.4043	83.7312	-0.391905	1.08452	-0.171886	0 0 0 -1.69725	0.160825	0.0547322	-0.214371 12.3768 -1.12219 -1.38188	10.9517	-0.173582	-0.00137213 12.3873 0.296195 -0.562829	11.6178	-0.365156	0.0883157 12.5016 0.82912 1.51012	-3.34931	2.02081	-1 10.1794 0.943522 -4.03349	23.7795	2.71843	0.667525 10.2797 -1.57149 -1.16326	7.93168	0.759456	0.0883157 12.5016 0.82912 -15	0	-0	20.61 4.45006 1.43784 15.1727	-18.7837	-178.414	0 -30.3438 0 -0	19.183	-0	0 -18.964 0 1.33087e-014	-3.10561e-015	-116.27	0 -9.48199 0 1.22245	4.37968	-2.58917e-014	0 -3.17138 0 -0	7.12502	-0	0 -9.48199 0 25	15	-1.36605e-015	0.0883157 12.5016 0.82912 15	0	-0	-20.61 4.45 1.44 -13.216	-11.2232	175.398	0 -29.5102 0 -0	27.6295	-0	0 -19.2342 0 6.45815e-016	-2.94039e-015	114.775	0 -9.61712 0 1.22	4.38	-0	0 -3.29215 0 -0	7.12502	-0	0 -9.61712 0 25	15	-7.97034e-015	-8.46272 -9.62775 4.76248 3.48235	-31.5389	4.90504	1.00552e-005 -38.0331 0 -0	32.3133	-0	1.14428e-005 -43.2815 0 -29.8708	-74.2765	-30.8235	0 -14.1868 -3.08763 -0	-43.615	-0	9.10607 -9.62778 4.76249 -4.28723	12.2325	5.06438	-1.01399e-005 -38.3535 0 -0	5.88991	-0	-1.12937e-005 -42.7176 0 39.5764	-71.5535	41.0681	0 -13.9965 -2.83857 -0	-37.8453	-0
